<svg width="256" height="256" viewBox="0 0 256 256" fill="none" xmlns="http://www.w3.org/2000/svg">
<g clip-path="url(#clip0_85_243)">
<path d="M206.866 0H49.1338C21.9979 0 0 24.0198 0 53.6497V202.35C0 231.98 21.9979 256 49.1338 256H206.866C234.002 256 256 231.98 256 202.35V53.6497C256 24.0198 234.002 0 206.866 0Z" fill="url(#paint0_linear_85_243)"/>
<path d="M141.567 70.0823C142.919 68.8459 143.93 66.9699 145.51 65.6055C156.643 56.0267 171.476 61.0435 180.459 70.7929C196.93 88.6715 204.319 117.451 197.386 140.957C194.382 151.133 184.502 160.3 173.398 159.575C162.579 158.864 150.236 147.694 145.61 138.342C142.563 132.188 149.567 128.081 153.468 132.331C155.29 134.32 156.97 137.944 159.006 140.275C172.815 156.221 186.424 151.076 189.471 130.895C192.161 113.116 186.353 92.9066 174.779 79.2064C170.067 73.6353 161.526 67.581 154.037 71.6456C148.898 74.4312 148.115 79.5901 140.684 81.5797C136.67 82.6456 122.163 82.5177 117.608 82.1056C110.675 81.4661 108.71 77.771 104.468 73.6495C96.909 66.3161 86.6734 72.541 81.1214 79.05C69.5192 92.665 63.2981 114.054 66.3446 131.762C69.7327 151.502 83.2852 155.695 96.6242 140.431C101.109 135.301 103.002 128.92 109.807 126.049C116.611 123.178 127.9 125.395 135.645 124.741C140.556 126.02 140.385 133.681 135.388 134.448C129.737 135.315 122.007 133.88 116.099 134.477C111.344 134.96 110.718 137.987 108.397 141.185C104.44 146.614 100.511 151.446 94.7593 155.112C80.0537 164.478 65.6897 158.495 59.369 143.046C49.8594 119.767 59.9811 83.1431 79.1426 66.9841C87.8122 59.6792 101.279 57.8885 110.262 65.6198C112.81 67.8084 114.704 71.6598 118.32 72.2709C121.594 72.8252 133.481 72.7399 136.954 72.342C138.421 72.1715 140.513 71.0771 141.595 70.0965L141.567 70.0823Z" fill="#1D1D1D"/>
<path d="M99.9697 101.718C104.582 101.135 111.415 102.045 109.579 108.398C108.369 112.576 103.486 111.226 100.254 111.652C99.4715 114.85 101.208 120.108 96.61 121.188C90.2893 122.666 89.6629 116.086 90.147 111.524C86.3887 111.524 81.3777 112.462 80.4666 107.559C79.4416 102.088 86.1609 101.121 90.147 101.732C89.5348 97.7387 90.5029 91.0307 95.9837 92.0681C100.909 92.9919 99.9555 97.9945 99.9555 101.732L99.9697 101.718Z" fill="#1D1D1D"/>
<path d="M152.4 106.735C156.929 106.735 160.6 103.07 160.6 98.5488C160.6 94.0277 156.929 90.3627 152.4 90.3627C147.872 90.3627 144.2 94.0277 144.2 98.5488C144.2 103.07 147.872 106.735 152.4 106.735Z" fill="#C03836"/>
<path d="M168.772 123.064C173.3 123.064 176.971 119.399 176.971 114.878C176.971 110.357 173.3 106.692 168.772 106.692C164.243 106.692 160.572 110.357 160.572 114.878C160.572 119.399 164.243 123.064 168.772 123.064Z" fill="#0093B2"/>
<path d="M230 192.589C229.971 191.481 229.957 190.386 229.943 189.292C229.786 178.079 228.135 166.922 225.017 156.15C218.398 133.283 212.931 109.734 205.415 87.4066C202.425 78.51 197.243 73.1805 187.62 71.674H181.242C192.104 83.9247 198.852 100.965 199.848 117.92L212.718 162.63C213.259 164.492 211.863 166.34 209.927 166.34H45.9444C44.0083 166.34 42.6132 164.478 43.1542 162.63L55.8383 119.113C56.7067 101.96 63.6254 83.6689 74.2168 71.8019H67.4548C60.4935 73.0952 54.6568 77.2878 51.6957 83.7542L30.9256 154.97C27.8506 165.501 26.1708 176.387 25.9288 187.359C25.8861 189.065 25.8434 190.813 25.7864 192.575C25.7295 194.209 27.0534 195.574 28.6906 195.574H36.9189C38.5275 195.574 39.823 194.28 39.823 192.674V183.11C39.823 181.504 41.1185 180.21 42.7271 180.21H213.116C214.725 180.21 216.02 181.504 216.02 183.11V192.674C216.02 194.28 217.316 195.574 218.924 195.574H227.067C228.69 195.574 230 194.238 229.971 192.617L230 192.589Z" fill="#8E6454"/>
</g>
<defs>
<linearGradient id="paint0_linear_85_243" x1="128.008" y1="0" x2="128.008" y2="256" gradientUnits="userSpaceOnUse">
<stop stop-color="#D5EFF7"/>
<stop offset="1" stop-color="#649AFF"/>
</linearGradient>
<clipPath id="clip0_85_243">
<rect width="256" height="256" fill="white"/>
</clipPath>
</defs>
</svg>
